<svg version="1" xmlns="http://www.w3.org/2000/svg" width="346.667" height="346.667" viewBox="0 0 260.000000 260.000000"><path d="M102.9 22.4c-.2.2-3.5.7-7.4 1.1-36 3.4-70.3 26.7-85 57.6-8.9 18.9-10.4 43-3.9 63.4 1.9 6.1 8.5 19.5 9.5 19.5.4 0 1 .8 1.3 1.8.6 1.9 11.7 13.7 17.1 18.2 15.5 12.9 50.1 29.7 80.3 39 14.6 4.4 43 11.6 54.2 13.6 12.5 2.2 30.2 2.5 38.8.7 24.6-5.1 41.2-26.3 46.7-59.6 1.3-7.9 1.4-30.1.1-35.7-.6-2.7-1.4-6.4-2-9.5-2.7-12.9-15.7-40.9-24.8-53-20.7-27.7-41.6-43.2-68.6-51-7.6-2.2-21.5-5-26.2-5.3-5.8-.5-29.9-1-30.1-.8z"/></svg>