<svg xmlns="http://www.w3.org/2000/svg" xlink="http://www.w3.org/1999/xlink" width="0" height="0" style="display:none;"><symbol viewBox="0 0 24 24" id="question-line"><path fill="none" d="M0 0h24v24H0z"/><path d="M12 22C6.477 22 2 17.523 2 12S6.477 2 12 2s10 4.477 10 10-4.477 10-10 10zm0-2a8 8 0 1 0 0-16 8 8 0 0 0 0 16zm-1-5h2v2h-2v-2zm2-1.645V14h-2v-1.5a1 1 0 0 1 1-1 1.5 1.5 0 1 0-1.471-1.794l-1.962-.393A3.501 3.501 0 1 1 13 13.355z"/></symbol><symbol viewBox="0 0 24 24" id="github-fill"><path fill="none" d="M0 0h24v24H0z"/><path d="M12 2C6.475 2 2 6.475 2 12a9.994 9.994 0 0 0 6.838 9.488c.5.087.687-.213.687-.476 0-.237-.013-1.024-.013-1.862-2.512.463-3.162-.612-3.362-1.175-.113-.288-.6-1.175-1.025-1.413-.35-.187-.85-.65-.013-.662.788-.013 1.35.725 1.538 1.025.9 1.512 2.338 1.087 2.912.825.088-.65.35-1.087.638-1.337-2.225-.25-4.55-1.113-4.55-4.938 0-1.088.387-1.987 1.025-2.688-.1-.25-.45-1.275.1-2.65 0 0 .837-.262 2.75 1.026a9.28 9.28 0 0 1 2.5-.338c.85 0 1.7.112 2.5.337 1.912-1.3 2.75-1.024 2.75-1.024.55 1.375.2 2.4.1 2.65.637.7 1.025 1.587 1.025 2.687 0 3.838-2.337 4.688-4.562 4.938.362.312.675.912.675 1.85 0 1.337-.013 2.412-.013 2.75 0 .262.188.574.688.474A10.016 10.016 0 0 0 22 12c0-5.525-4.475-10-10-10z"/></symbol><symbol viewBox="0 0 24 24" id="twitter-line"><path fill="none" d="M0 0h24v24H0z"/><path d="M15.3 5.55a2.9 2.9 0 0 0-2.9 2.847l-.028 1.575a.6.6 0 0 1-.68.583l-1.561-.212c-2.054-.28-4.022-1.226-5.91-2.799-.598 3.31.57 5.603 3.383 7.372l1.747 1.098a.6.6 0 0 1 .034.993L7.793 18.17c.947.059 1.846.017 2.592-.131 4.718-.942 7.855-4.492 7.855-10.348 0-.478-1.012-2.141-2.94-2.141zm-4.9 2.81a4.9 4.9 0 0 1 8.385-3.355c.711-.005 1.316.175 2.669-.645-.335 1.64-.5 2.352-1.214 3.331 0 7.642-4.697 11.358-9.463 12.309-3.268.652-8.02-.419-9.382-1.841.694-.054 3.514-.357 5.144-1.55C5.16 15.7-.329 12.47 3.278 3.786c1.693 1.977 3.41 3.323 5.15 4.037 1.158.475 1.442.465 1.973.538z"/></symbol><symbol viewBox="0 0 24 24" id="flutter-fill"><path fill="none" d="M0 0h24v24H0z"/><path d="M13.503 2.001l-10 10 3.083 3.083 13.08-13.083h-6.163zm-.006 9.198L8.122 16.62 13.494 22h6.189l-5.387-5.4 5.389-5.4h-6.188z"/></symbol><symbol viewBox="0 0 24 24" id="code-s-slash-fill"><path fill="none" d="M0 0h24v24H0z"/><path d="M24 12l-5.657 5.657-1.414-1.414L21.172 12l-4.243-4.243 1.414-1.414L24 12zM2.828 12l4.243 4.243-1.414 1.414L0 12l5.657-5.657L7.07 7.757 2.828 12zm6.96 9H7.66l6.552-18h2.128L9.788 21z"/></symbol><symbol viewBox="0 0 24 24" id="code-fill"><path fill="none" d="M0 0h24v24H0z"/><path d="M23 12l-7.071 7.071-1.414-1.414L20.172 12l-5.657-5.657 1.414-1.414L23 12zM3.828 12l5.657 5.657-1.414 1.414L1 12l7.071-7.071 1.414 1.414L3.828 12z"/></symbol><symbol viewBox="0 0 24 24" id="download-line"><path fill="none" d="M0 0h24v24H0z"/><path d="M3 19h18v2H3v-2zm10-5.828L19.071 7.1l1.414 1.414L12 17 3.515 8.515 4.929 7.1 11 13.17V2h2v11.172z"/></symbol><symbol viewBox="0 0 24 24" id="download-2-line"><path fill="none" d="M0 0h24v24H0z"/><path d="M13 10h5l-6 6-6-6h5V3h2v7zm-9 9h16v-7h2v8a1 1 0 0 1-1 1H3a1 1 0 0 1-1-1v-8h2v7z"/></symbol><symbol viewBox="0 0 24 24" id="shuffle-fill"><path fill="none" d="M0 0h24v24H0z"/><path d="M18 17.883V16l5 3-5 3v-2.09a9 9 0 0 1-6.997-5.365L11 14.54l-.003.006A9 9 0 0 1 2.725 20H2v-2h.725a7 7 0 0 0 6.434-4.243L9.912 12l-.753-1.757A7 7 0 0 0 2.725 6H2V4h.725a9 9 0 0 1 8.272 5.455L11 9.46l.003-.006A9 9 0 0 1 18 4.09V2l5 3-5 3V6.117a7 7 0 0 0-5.159 4.126L12.088 12l.753 1.757A7 7 0 0 0 18 17.883z"/></symbol><symbol viewBox="0 0 24 24" id="copyright-line"><path fill="none" d="M0 0h24v24H0z"/><path d="M12 2c5.52 0 10 4.48 10 10s-4.48 10-10 10S2 17.52 2 12 6.48 2 12 2zm0 2c-4.42 0-8 3.58-8 8s3.58 8 8 8 8-3.58 8-8-3.58-8-8-8zm0 3c1.82 0 3.413.973 4.288 2.428l-1.714 1.029A3 3 0 1 0 12 15a2.998 2.998 0 0 0 2.573-1.456l1.715 1.028A4.999 4.999 0 0 1 7 12c0-2.76 2.24-5 5-5z"/></symbol><symbol viewBox="0 0 24 24" id="paint-brush-line"><path fill="none" d="M0 0h24v24H0z"/><path d="M5 5v3h14V5H5zM4 3h16a1 1 0 0 1 1 1v5a1 1 0 0 1-1 1H4a1 1 0 0 1-1-1V4a1 1 0 0 1 1-1zm2 9h6a1 1 0 0 1 1 1v3h1v6h-4v-6h1v-2H5a1 1 0 0 1-1-1v-2h2v1zm11.732 1.732l1.768-1.768 1.768 1.768a2.5 2.5 0 1 1-3.536 0z"/></symbol><symbol viewBox="0 0 24 24" id="palette-line"><path fill="none" d="M0 0h24v24H0z"/><path d="M12 2c5.522 0 10 3.978 10 8.889a5.558 5.558 0 0 1-5.556 5.555h-1.966c-.922 0-1.667.745-1.667 1.667 0 .422.167.811.422 1.1.267.3.434.689.434 1.122C13.667 21.256 12.9 22 12 22 6.478 22 2 17.522 2 12S6.478 2 12 2zm-1.189 16.111a3.664 3.664 0 0 1 3.667-3.667h1.966A3.558 3.558 0 0 0 20 10.89C20 7.139 16.468 4 12 4a8 8 0 0 0-.676 15.972 3.648 3.648 0 0 1-.513-1.86zM7.5 12a1.5 1.5 0 1 1 0-3 1.5 1.5 0 0 1 0 3zm9 0a1.5 1.5 0 1 1 0-3 1.5 1.5 0 0 1 0 3zM12 9a1.5 1.5 0 1 1 0-3 1.5 1.5 0 0 1 0 3z"/></symbol><symbol viewBox="0 0 24 24" id="file-copy-2-line"><path fill="none" d="M0 0h24v24H0z"/><path d="M7 6V3a1 1 0 0 1 1-1h12a1 1 0 0 1 1 1v14a1 1 0 0 1-1 1h-3v3c0 .552-.45 1-1.007 1H4.007A1.001 1.001 0 0 1 3 21l.003-14c0-.552.45-1 1.006-1H7zM5.002 8L5 20h10V8H5.002zM9 6h8v10h2V4H9v2zm-2 5h6v2H7v-2zm0 4h6v2H7v-2z"/></symbol><symbol viewBox="0 0 24 24" id="file-copy-fill"><path fill="none" d="M0 0h24v24H0z"/><path d="M7 6V3a1 1 0 0 1 1-1h12a1 1 0 0 1 1 1v14a1 1 0 0 1-1 1h-3v3c0 .552-.45 1-1.007 1H4.007A1.001 1.001 0 0 1 3 21l.003-14c0-.552.45-1 1.007-1H7zm2 0h8v10h2V4H9v2z"/></symbol><symbol viewBox="0 0 24 24" id="file-list-2-line"><path fill="none" d="M0 0h24v24H0z"/><path d="M20 22H4a1 1 0 0 1-1-1V3a1 1 0 0 1 1-1h16a1 1 0 0 1 1 1v18a1 1 0 0 1-1 1zm-1-2V4H5v16h14zM8 7h8v2H8V7zm0 4h8v2H8v-2zm0 4h5v2H8v-2z"/></symbol><symbol viewBox="0 0 24 24" id="folder-2-line"><path fill="none" d="M0 0h24v24H0z"/><path d="M12.414 5H21a1 1 0 0 1 1 1v14a1 1 0 0 1-1 1H3a1 1 0 0 1-1-1V4a1 1 0 0 1 1-1h7.414l2 2zM20 11H4v8h16v-8zm0-2V7h-8.414l-2-2H4v4h16z"/></symbol><symbol viewBox="0 0 24 24" id="folder-line"><path fill="none" d="M0 0h24v24H0z"/><path d="M4 5v14h16V7h-8.414l-2-2H4zm8.414 0H21a1 1 0 0 1 1 1v14a1 1 0 0 1-1 1H3a1 1 0 0 1-1-1V4a1 1 0 0 1 1-1h7.414l2 2z"/></symbol><symbol viewBox="0 0 24 24" id="exchange-line"><path fill="none" d="M0 0h24v24H0z"/><path d="M12 22C6.477 22 2 17.523 2 12S6.477 2 12 2s10 4.477 10 10-4.477 10-10 10zm0-2a8 8 0 1 0 0-16 8 8 0 0 0 0 16zm-5-7h9v2h-4v3l-5-5zm5-4V6l5 5H8V9h4z"/></symbol><symbol viewBox="0 0 24 24" id="repeat-2-line"><path fill="none" d="M0 0h24v24H0z"/><path d="M8 20v1.932a.5.5 0 0 1-.82.385l-4.12-3.433A.5.5 0 0 1 3.382 18H18a2 2 0 0 0 2-2V8h2v8a4 4 0 0 1-4 4H8zm8-16V2.068a.5.5 0 0 1 .82-.385l4.12 3.433a.5.5 0 0 1-.321.884H6a2 2 0 0 0-2 2v8H2V8a4 4 0 0 1 4-4h10z"/></symbol><symbol viewBox="0 0 24 24" id="apps-2-line"><path fill="none" d="M0 0h24v24H0z"/><path d="M6.5 11.5a4.5 4.5 0 1 1 0-9 4.5 4.5 0 0 1 0 9zm.5 10a4.5 4.5 0 1 1 0-9 4.5 4.5 0 0 1 0 9zm10-10a4.5 4.5 0 1 1 0-9 4.5 4.5 0 0 1 0 9zm0 10a4.5 4.5 0 1 1 0-9 4.5 4.5 0 0 1 0 9zM6.5 9.5a2.5 2.5 0 1 0 0-5 2.5 2.5 0 0 0 0 5zm.5 10a2.5 2.5 0 1 0 0-5 2.5 2.5 0 0 0 0 5zm10-10a2.5 2.5 0 1 0 0-5 2.5 2.5 0 0 0 0 5zm0 10a2.5 2.5 0 1 0 0-5 2.5 2.5 0 0 0 0 5z"/></symbol><symbol viewBox="0 0 24 24" id="alert-line"><path fill="none" d="M0 0h24v24H0z"/><path d="M12.866 3l9.526 16.5a1 1 0 0 1-.866 1.5H2.474a1 1 0 0 1-.866-1.5L11.134 3a1 1 0 0 1 1.732 0zm-8.66 16h15.588L12 5.5 4.206 19zM11 16h2v2h-2v-2zm0-7h2v5h-2V9z"/></symbol><symbol viewBox="0 0 24 24" id="close-fill"><path fill="none" d="M0 0h24v24H0z"/><path d="M12 10.586l4.95-4.95 1.414 1.414-4.95 4.95 4.95 4.95-1.414 1.414-4.95-4.95-4.95 4.95-1.414-1.414 4.95-4.95-4.95-4.95L7.05 5.636z"/></symbol><symbol viewBox="0 0 24 24" id="check-fill"><path fill="none" d="M0 0h24v24H0z"/><path d="M10 15.172l9.192-9.193 1.415 1.414L10 18l-6.364-6.364 1.414-1.414z"/></symbol><symbol viewBox="0 0 24 24" id="refresh-line"><path fill="none" d="M0 0h24v24H0z"/><path d="M5.463 4.433A9.961 9.961 0 0 1 12 2c5.523 0 10 4.477 10 10 0 2.136-.67 4.116-1.81 5.74L17 12h3A8 8 0 0 0 6.46 6.228l-.997-1.795zm13.074 15.134A9.961 9.961 0 0 1 12 22C6.477 22 2 17.523 2 12c0-2.136.67-4.116 1.81-5.74L7 12H4a8 8 0 0 0 13.54 5.772l.997 1.795z"/></symbol><symbol viewBox="0 0 24 24" id="loader-2-fill"><path fill="none" d="M0 0h24v24H0z"/><path d="M12 2a1 1 0 0 1 1 1v3a1 1 0 0 1-2 0V3a1 1 0 0 1 1-1zm0 15a1 1 0 0 1 1 1v3a1 1 0 0 1-2 0v-3a1 1 0 0 1 1-1zm10-5a1 1 0 0 1-1 1h-3a1 1 0 0 1 0-2h3a1 1 0 0 1 1 1zM7 12a1 1 0 0 1-1 1H3a1 1 0 0 1 0-2h3a1 1 0 0 1 1 1zm12.071 7.071a1 1 0 0 1-1.414 0l-2.121-2.121a1 1 0 0 1 1.414-1.414l2.121 2.12a1 1 0 0 1 0 1.415zM8.464 8.464a1 1 0 0 1-1.414 0L4.93 6.344a1 1 0 0 1 1.414-1.415L8.464 7.05a1 1 0 0 1 0 1.414zM4.93 19.071a1 1 0 0 1 0-1.414l2.121-2.121a1 1 0 1 1 1.414 1.414l-2.12 2.121a1 1 0 0 1-1.415 0zM15.536 8.464a1 1 0 0 1 0-1.414l2.12-2.121a1 1 0 0 1 1.415 1.414L16.95 8.464a1 1 0 0 1-1.414 0z"/></symbol><symbol viewBox="0 0 24 24" id="flashlight-line"><path fill="none" d="M0 0h24v24H0z"/><path d="M13 9h8L11 24v-9H4l9-15v9zm-2 2V7.22L7.532 13H13v4.394L17.263 11H11z"/></symbol><symbol viewBox="0 0 24 24" id="plug-line"><path fill="none" d="M0 0h24v24H0z"/><path d="M13 18v2h6v2h-6a2 2 0 0 1-2-2v-2H8a4 4 0 0 1-4-4V7a1 1 0 0 1 1-1h3V2h2v4h4V2h2v4h3a1 1 0 0 1 1 1v7a4 4 0 0 1-4 4h-3zm-5-2h8a2 2 0 0 0 2-2v-3H6v3a2 2 0 0 0 2 2zm10-8H6v1h12V8zm-6 6.5a1 1 0 1 1 0-2 1 1 0 0 1 0 2z"/></symbol><symbol viewBox="0 0 24 24" id="lightbulb-flash-line"><path fill="none" d="M0 0h24v24H0z"/><path d="M9.973 18h4.054c.132-1.202.745-2.194 1.74-3.277.113-.122.832-.867.917-.973a6 6 0 1 0-9.37-.002c.086.107.807.853.918.974.996 1.084 1.609 2.076 1.741 3.278zM14 20h-4v1h4v-1zm-8.246-5a8 8 0 1 1 12.49.002C17.624 15.774 16 17 16 18.5V21a2 2 0 0 1-2 2h-4a2 2 0 0 1-2-2v-2.5C8 17 6.375 15.774 5.754 15zM13 10.004h2.5l-4.5 6v-4H8.5L13 6v4.005z"/></symbol><symbol viewBox="0 0 24 24" id="heart-line"><path fill="none" d="M0 0h24v24H0z"/><path d="M12 22l-9.192-9.192c-2.18-2.568-2.066-6.42.353-8.84A6.5 6.5 0 0 1 12 3.64a6.5 6.5 0 0 1 9.179 9.154L12 22zm7.662-10.509a4.5 4.5 0 0 0-6.355-6.337L12 6.282l-1.307-1.128a4.5 4.5 0 0 0-6.355 6.337l.114.132L12 19.172l7.548-7.549.114-.132z"/></symbol><symbol viewBox="0 0 24 24" id="heart-fill"><path fill="none" d="M0 0h24v24H0z"/><path d="M21.179 12.794l.013.014L12 22l-9.192-9.192.013-.014A6.5 6.5 0 0 1 12 3.64a6.5 6.5 0 0 1 9.179 9.154z"/></symbol><symbol viewBox="0 0 24 24" id="file-mark-line"><path fill="none" d="M0 0h24v24H0z"/><path d="M20 22H4a1 1 0 0 1-1-1V3a1 1 0 0 1 1-1h16a1 1 0 0 1 1 1v18a1 1 0 0 1-1 1zM7 4H5v16h14V4h-5v9l-3.5-2L7 13V4z"/></symbol><symbol viewBox="0 0 24 24" id="pushpin-2-line"><path fill="none" d="M0 0h24v24H0z"/><path d="M18 3v2h-1v6l2 3v2h-6v7h-2v-7H5v-2l2-3V5H6V3h12zM9 5v6.606L7.404 14h9.192L15 11.606V5H9z"/></symbol></svg>